<svg width="55" height="55" viewBox="0 0 55 55" fill="none" xmlns="http://www.w3.org/2000/svg">
<path d="M53.0195 46.3923L46.7121 32.8665C43.2293 37.9375 37.7915 41.5485 31.4969 42.6435L36.7769 53.9658C37.452 55.4146 39.5411 55.318 40.0848 53.8218L42.7911 46.3878L43.3488 46.1277L50.7829 48.834C52.2747 49.3814 53.6936 47.8354 53.0195 46.3923Z" fill="white"/>
<path d="M27.5001 0C16.6305 0 7.7865 8.84351 7.7865 19.7136C7.7865 30.5838 16.6306 39.4273 27.5001 39.4273C38.3697 39.4273 47.2138 30.5838 47.2138 19.7136C47.2138 8.84351 38.3698 0 27.5001 0ZM37.0923 18.2652L33.5966 21.6728L34.4227 26.4857C34.6753 27.9551 33.127 29.0591 31.8219 28.3747L27.5002 26.103L23.1785 28.3746C21.866 29.0638 20.3266 27.9469 20.5778 26.4856L21.4038 21.6727L17.9082 18.265C16.8458 17.2293 17.4355 15.4213 18.9013 15.2083L23.7328 14.5065L25.8937 10.1287C26.5476 8.79925 28.4524 8.79807 29.1071 10.1287L31.268 14.5065L36.0995 15.2083C37.5651 15.4212 38.1547 17.2293 37.0923 18.2652Z" fill="white"/>
<path d="M8.28822 32.8665L1.98083 46.3923C1.30354 47.8421 2.73526 49.3797 4.21746 48.8336L11.6515 46.1274L12.2092 46.3874L14.9155 53.8216C15.4581 55.3146 17.5469 55.4175 18.2233 53.9657L23.5033 42.6434C17.2087 41.5485 11.771 37.9376 8.28822 32.8665Z" fill="white"/>
</svg>
