<svg width="43" height="51" viewBox="0 0 43 51" fill="none" xmlns="http://www.w3.org/2000/svg">
<g filter="url(#filter0_d)">
<path d="M8.27509 21.232C7.87419 22.0744 7.64258 22.9953 7.64258 23.9355C7.64258 26.109 8.74947 28.0281 10.4288 29.1609C10.6529 29.8991 10.9934 30.6796 11.5301 31.2507C11.9809 31.7294 12.2912 32.2736 12.4792 32.8379H20.2402V0.700745C19.4962 0.266716 18.6426 0 17.7207 0C15.878 0 14.2107 1.0088 13.3325 2.5612C11.8031 2.35714 10.2261 2.88729 9.11887 3.99582C8.1665 4.94786 7.64258 6.21288 7.64258 7.55859C7.64258 8.16158 7.76298 8.7429 7.96474 9.29241C6.21517 10.7152 5.12305 12.8263 5.12305 15.1172C5.12305 17.637 6.37428 19.858 8.27509 21.232Z" fill="url(#paint0_linear)"/>
<path d="M22.7598 0.0639648V32.8379H30.3184V32.1713C30.3184 31.0345 30.8337 29.8837 31.7333 29.1629C35.6379 26.0342 37.877 21.3743 37.877 16.3769C37.877 7.77216 31.2015 0.711235 22.7598 0.0639648ZM30.3184 17.6367C30.3184 14.2659 28.6439 11.1325 25.8377 9.255L27.2401 7.1613C30.7452 9.50729 32.8379 13.4231 32.8379 17.6367H30.3184Z" fill="url(#paint1_linear)"/>
<path d="M30.3184 36.6172V35.3574H12.6816V36.6172C12.6816 40.0901 15.5076 43 18.9805 43H24.0195C27.4924 43 30.3184 40.0901 30.3184 36.6172Z" fill="url(#paint2_linear)"/>
</g>
<defs>
<filter id="filter0_d" x="-4" y="0" width="51" height="51" filterUnits="userSpaceOnUse" color-interpolation-filters="sRGB">
<feFlood flood-opacity="0" result="BackgroundImageFix"/>
<feColorMatrix in="SourceAlpha" type="matrix" values="0 0 0 0 0 0 0 0 0 0 0 0 0 0 0 0 0 0 127 0"/>
<feOffset dy="4"/>
<feGaussianBlur stdDeviation="2"/>
<feColorMatrix type="matrix" values="0 0 0 0 0 0 0 0 0 0 0 0 0 0 0 0 0 0 0.25 0"/>
<feBlend mode="normal" in2="BackgroundImageFix" result="effect1_dropShadow"/>
<feBlend mode="normal" in="SourceGraphic" in2="effect1_dropShadow" result="shape"/>
</filter>
<linearGradient id="paint0_linear" x1="10.3861" y1="-1.06675e-06" x2="22.0861" y2="0.410813" gradientUnits="userSpaceOnUse">
<stop stop-color="#632DD7"/>
<stop offset="1" stop-color="#C71A65"/>
</linearGradient>
<linearGradient id="paint1_linear" x1="28.0228" y1="0.0639638" x2="39.7227" y2="0.475578" gradientUnits="userSpaceOnUse">
<stop stop-color="#632DD7"/>
<stop offset="1" stop-color="#C71A65"/>
</linearGradient>
<linearGradient id="paint2_linear" x1="18.8218" y1="35.3574" x2="32.078" y2="37.6907" gradientUnits="userSpaceOnUse">
<stop stop-color="#632DD7"/>
<stop offset="1" stop-color="#C71A65"/>
</linearGradient>
</defs>
</svg>
