<svg width="48" height="48" viewBox="0 0 48 48" fill="none" xmlns="http://www.w3.org/2000/svg">
<path d="M24.4531 16.6197C29.0425 16.6197 32.763 12.8993 32.763 8.30985C32.763 3.72045 29.0425 0 24.4531 0C19.8637 0 16.1433 3.72045 16.1433 8.30985C16.1433 12.8993 19.8637 16.6197 24.4531 16.6197Z" fill="url(#paint0_linear)"/>
<path d="M31.791 17.3751H25.8358C26.3643 17.8844 25.7126 19.6038 25.28 20.5567C24.4367 20.4061 23.566 20.4198 22.72 20.5923C22.2956 19.6394 21.6193 17.8899 22.1505 17.3751H16.3623C5.31721 17.575 5.71148 25.685 5.71148 25.685L5.70601 44.6183H5.71696C5.71696 44.6621 5.71422 44.7086 5.71422 44.7524C5.71422 46.5486 7.17084 47.9997 8.9615 47.9997C10.7549 47.9997 12.2088 46.5513 12.2088 44.7524C12.2088 44.7086 12.2006 44.6621 12.2006 44.6183H12.2088V27.1033H14.2376L14.2322 47.255L33.6912 47.2878L33.6857 27.0211H35.7967V44.6183H35.8022C35.8022 44.6183 35.8022 44.6292 35.8022 44.6402C35.8022 46.4309 37.2561 47.8875 39.0549 47.8875C40.8401 47.8875 42.294 46.4336 42.294 44.6402C42.294 44.6292 42.294 44.6183 42.294 44.6183V25.685C41.5739 17.2464 31.791 17.3751 31.791 17.3751ZM24.0589 39.093L21.926 36.4234L23.002 22.3473C23.6536 22.2296 24.3245 22.2214 24.9871 22.32L25.0144 22.6129L25.5319 29.4223L26.0658 36.4234L24.0589 39.093Z" fill="url(#paint1_linear)"/>
<defs>
<linearGradient id="paint0_linear" x1="21.9294" y1="-5.39898e-07" x2="34.7336" y2="0.976602" gradientUnits="userSpaceOnUse">
<stop stop-color="#632DD7"/>
<stop offset="1" stop-color="#C71A65"/>
</linearGradient>
<linearGradient id="paint1_linear" x1="18.444" y1="17.375" x2="46.5629" y2="19.9373" gradientUnits="userSpaceOnUse">
<stop stop-color="#632DD7"/>
<stop offset="1" stop-color="#C71A65"/>
</linearGradient>
</defs>
</svg>
