<svg width="66" height="85" viewBox="0 0 66 85" fill="none" xmlns="http://www.w3.org/2000/svg">
<g clip-path="url(#clip0)">
<path d="M14.0509 53.5017V60.7961C14.0509 61.2399 14.4115 61.6097 14.8645 61.6097H20.504C20.9478 61.6097 21.3176 61.2491 21.3176 60.7961V47.9639L17.222 52.0595C16.3529 52.9193 15.2435 53.4185 14.0509 53.5017Z" fill="url(#paint0_linear)"/>
<path d="M24.1281 47.8716V60.7963C24.1281 61.2401 24.4887 61.6099 24.9417 61.6099H30.5812C31.025 61.6099 31.3948 61.2493 31.3948 60.7963V53.1875C30.1097 53.1598 28.9079 52.6513 28.0018 51.7453L24.1281 47.8716Z" fill="url(#paint1_linear)"/>
<path d="M34.2053 52.3832V60.7963C34.2053 61.24 34.5659 61.6099 35.0189 61.6099H40.6584C41.1022 61.6099 41.472 61.2493 41.472 60.7963V45.2737L35.0097 51.736C34.76 51.9857 34.4919 52.1983 34.2053 52.3832Z" fill="url(#paint2_linear)"/>
<path d="M51.0038 35.7327L44.2825 42.4539V60.7963C44.2825 61.24 44.6431 61.6098 45.0961 61.6098H50.7356C51.1794 61.6098 51.5492 61.2493 51.5492 60.7963V36.2411C51.3643 36.084 51.2256 35.9453 51.1239 35.8529L51.0038 35.7327Z" fill="url(#paint3_linear)"/>
<path d="M55.6171 23.8249C55.349 23.5383 54.9422 23.3904 54.4244 23.3904C54.3782 23.3904 54.3227 23.3904 54.2765 23.3904C51.6509 23.5106 49.0345 23.64 46.4089 23.7602C46.0576 23.7787 45.5768 23.7972 45.1978 24.1762C45.0776 24.2964 44.9851 24.4351 44.9112 24.6015C44.5229 25.4428 45.0684 25.9883 45.3272 26.2471L45.9836 26.9128C46.4366 27.375 46.8989 27.8373 47.3611 28.2903L31.4965 44.1642L24.3685 37.0362C23.9432 36.6109 23.37 36.3706 22.7598 36.3706C22.1496 36.3706 21.5857 36.6109 21.1604 37.0362L11.6657 46.5217C10.7781 47.4093 10.7781 48.8423 11.6657 49.7298L12.0909 50.1551C12.5162 50.5804 13.0894 50.8207 13.6996 50.8207C14.3098 50.8207 14.8737 50.5804 15.299 50.1551L22.7598 42.6942L29.8878 49.8223C30.3131 50.2475 30.8863 50.4879 31.4965 50.4879C32.1067 50.4879 32.6706 50.2475 33.1051 49.8223L51.0037 31.9236L53.0284 33.9391C53.2688 34.1795 53.6016 34.5123 54.1101 34.5123C54.3227 34.5123 54.5354 34.4568 54.7573 34.3366C54.9052 34.2534 55.0346 34.161 55.1456 34.05C55.5431 33.6525 55.6171 33.144 55.6356 32.7465C55.7095 31.0454 55.7927 29.3443 55.8759 27.6339L55.9961 25.073C56.0239 24.5368 55.9037 24.1207 55.6171 23.8249Z" fill="url(#paint4_linear)"/>
</g>
<defs>
<linearGradient id="paint0_linear" x1="16.5808" y1="47.9639" x2="22.2025" y2="48.1922" gradientUnits="userSpaceOnUse">
<stop stop-color="#632DD7"/>
<stop offset="1" stop-color="#C71A65"/>
</linearGradient>
<linearGradient id="paint1_linear" x1="26.658" y1="47.8716" x2="32.2799" y2="48.0984" gradientUnits="userSpaceOnUse">
<stop stop-color="#632DD7"/>
<stop offset="1" stop-color="#C71A65"/>
</linearGradient>
<linearGradient id="paint2_linear" x1="36.7352" y1="45.2737" x2="42.3597" y2="45.4645" gradientUnits="userSpaceOnUse">
<stop stop-color="#632DD7"/>
<stop offset="1" stop-color="#C71A65"/>
</linearGradient>
<linearGradient id="paint3_linear" x1="46.8124" y1="35.7327" x2="52.4408" y2="35.8532" gradientUnits="userSpaceOnUse">
<stop stop-color="#632DD7"/>
<stop offset="1" stop-color="#C71A65"/>
</linearGradient>
<linearGradient id="paint4_linear" x1="26.6667" y1="23.3904" x2="61" y2="27.6863" gradientUnits="userSpaceOnUse">
<stop stop-color="#632DD7"/>
<stop offset="1" stop-color="#C71A65"/>
</linearGradient>
<clipPath id="clip0">
<rect width="45" height="45" fill="white" transform="translate(11 20)"/>
</clipPath>
</defs>
</svg>
