<svg width="67" height="67" viewBox="0 0 67 67" fill="none" xmlns="http://www.w3.org/2000/svg">
<path d="M64.2083 16.75H44.6667C43.1257 16.75 41.875 18.0007 41.875 19.5417V30.7083H22.3333C20.7923 30.7083 19.5417 31.959 19.5417 33.5V44.6667H2.79167C1.25066 44.6667 0 45.9173 0 47.4583V58.625C0 60.166 1.25066 61.4167 2.79167 61.4167C4.33267 61.4167 5.58333 60.166 5.58333 58.625V50.25H22.3333C23.8743 50.25 25.125 48.9993 25.125 47.4583V36.2917H44.6667C46.2077 36.2917 47.4583 35.041 47.4583 33.5V22.3333H64.2083C65.7493 22.3333 67 21.0827 67 19.5417C67 18.0007 65.7493 16.75 64.2083 16.75Z" fill="url(#paint0_linear)"/>
<path d="M0.817864 27.099C1.36379 27.6449 2.0767 27.9168 2.79166 27.9168C3.50661 27.9168 4.21953 27.6449 4.76545 27.099L16.75 15.1158V16.7502C16.75 18.2912 18.0007 19.5418 19.5417 19.5418C21.0827 19.5418 22.3333 18.2912 22.3333 16.7502V8.37516C22.3333 8.11958 22.287 7.87694 22.2229 7.64112C22.2079 7.58387 22.1909 7.52935 22.1711 7.47346C22.0948 7.24855 21.998 7.03385 21.8699 6.83961C21.8658 6.83416 21.8644 6.82734 21.8603 6.82189C21.7261 6.62219 21.5584 6.44771 21.3785 6.28823C21.3355 6.24938 21.2905 6.21326 21.2449 6.17645C21.0506 6.02583 20.8441 5.89361 20.6151 5.79819C20.6138 5.79819 20.6124 5.79682 20.611 5.79546C20.6056 5.79273 20.5981 5.79273 20.5913 5.79137C20.3752 5.70345 20.1421 5.65165 19.9015 5.61962C19.8375 5.61144 19.7748 5.60462 19.7107 5.60054C19.6548 5.59713 19.6003 5.5835 19.5417 5.5835H11.1667C9.62565 5.5835 8.37499 6.83416 8.37499 8.37516C8.37499 9.91617 9.62565 11.1668 11.1667 11.1668H12.8024L0.817864 23.1514C-0.27195 24.2419 -0.27195 26.0085 0.817864 27.099Z" fill="url(#paint1_linear)"/>
<defs>
<linearGradient id="paint0_linear" x1="23.3259" y1="16.75" x2="74.574" y2="22.6132" gradientUnits="userSpaceOnUse">
<stop stop-color="#632DD7"/>
<stop offset="1" stop-color="#C71A65"/>
</linearGradient>
<linearGradient id="paint1_linear" x1="7.77564" y1="5.5835" x2="24.9814" y2="6.89578" gradientUnits="userSpaceOnUse">
<stop stop-color="#632DD7"/>
<stop offset="1" stop-color="#C71A65"/>
</linearGradient>
</defs>
</svg>
