<svg width="51" height="51" viewBox="0 0 51 51" fill="none" xmlns="http://www.w3.org/2000/svg">
<path d="M37.4531 3.28711C31.4109 3.28711 27.5325 7.4719 25.5 11.2408C23.4675 7.4718 19.5891 3.28711 13.5469 3.28711C5.88064 3.28711 0 9.50732 0 17.7572C0 19.9097 0.43101 21.897 1.2246 23.8066H12.6233L15.1986 18.6559C15.7064 17.6433 17.3639 17.6433 17.8717 18.6559L22.5117 27.936L24.1634 24.6326C24.6712 23.62 26.3288 23.62 26.8366 24.6326L28.4883 27.936L33.1283 18.656C33.6361 17.6434 35.2936 17.6434 35.8014 18.656L38.3767 23.8066H49.7754C50.569 21.897 51 19.9097 51 17.7572C51 9.50732 45.1194 3.28711 37.4531 3.28711Z" fill="url(#paint0_linear)"/>
<path d="M37.4531 26.7948C36.8869 26.7948 36.3705 26.4753 36.1165 25.969L34.4648 22.6655L29.8248 31.9455C29.5709 32.4518 29.0544 32.7714 28.4883 32.7714C27.9221 32.7714 27.4056 32.4518 27.1517 31.9455L25.5 28.6421L23.8483 31.9455C23.3404 32.9582 21.6829 32.9582 21.1751 31.9455L16.5351 22.6655L14.8834 25.969C14.6295 26.4753 14.113 26.7948 13.5469 26.7948H2.79272C5.86796 31.6333 11.4063 36.2291 18.3342 42.0762C20.2792 43.7177 22.3482 45.4643 24.5208 47.348C24.8024 47.5917 25.1511 47.7128 25.4999 47.7128C25.8486 47.7128 26.1973 47.5917 26.4789 47.348C28.6516 45.4643 30.7206 43.7178 32.6656 42.0762C39.5935 36.2291 45.1318 31.6333 48.207 26.7948H37.4531Z" fill="url(#paint1_linear)"/>
<defs>
<linearGradient id="paint0_linear" x1="17.7556" y1="3.28711" x2="56.3156" y2="9.37228" gradientUnits="userSpaceOnUse">
<stop stop-color="#632DD7"/>
<stop offset="1" stop-color="#C71A65"/>
</linearGradient>
<linearGradient id="paint1_linear" x1="18.6036" y1="22.6655" x2="53.1351" y2="27.4409" gradientUnits="userSpaceOnUse">
<stop stop-color="#632DD7"/>
<stop offset="1" stop-color="#C71A65"/>
</linearGradient>
</defs>
</svg>
