<svg width="44" height="43" viewBox="0 0 44 43" fill="none" xmlns="http://www.w3.org/2000/svg">
<path d="M43.9997 29.7853H39.0985C39.0985 29.7853 35.4118 24.0071 34.1795 20.287L34.1793 20.2865C33.8284 19.1578 32.6656 18.454 31.4751 18.7104C30.2347 18.9777 29.4622 20.2263 29.698 21.473L30.887 27.7589H15.7301C14.6266 27.7589 13.6831 28.6172 13.6486 29.7203C13.626 30.4393 13.9789 31.0767 14.5252 31.4536H13.4217C12.3307 31.4536 11.3918 32.292 11.3406 33.382C11.2858 34.5456 12.213 35.5062 13.3645 35.5062H13.8322C13.286 35.8831 12.9333 36.5206 12.9559 37.2396C12.9905 38.3424 13.934 39.2007 15.0373 39.2007H17.4792C17.0794 39.5977 16.8441 40.1597 16.8849 40.7763C16.956 41.8491 17.8852 42.6647 18.9604 42.6647H37.0723C38.1913 42.6647 39.0986 41.7575 39.0986 40.6385H44V29.7853H43.9997Z" fill="url(#paint0_linear)"/>
<path d="M12.5246 23.9542C13.765 23.6869 14.5375 22.4384 14.3016 21.1916L13.1127 14.9057H28.2696C29.3731 14.9057 30.3166 14.0473 30.3511 12.9444C30.3736 12.2254 30.0208 11.5879 29.4745 11.211H30.578C31.669 11.211 32.6079 10.3726 32.6591 9.28268C32.7139 8.11908 31.7867 7.15847 30.6351 7.15847H30.1674C30.7136 6.78159 31.0662 6.14411 31.0437 5.4251C31.0091 4.32223 30.0655 3.46393 28.9622 3.46393H26.5204C26.9201 3.067 27.1555 2.50495 27.1146 1.8884C27.0435 0.815531 26.1144 0 25.0391 0H6.92756C5.80851 0 4.90121 0.907152 4.90121 2.02635H0V12.8794H5.1685C5.1685 12.8794 8.13839 17.16 9.82009 22.3772L9.82038 22.3781C10.1714 23.5068 11.3343 24.2107 12.5246 23.9542Z" fill="url(#paint1_linear)"/>
<defs>
<linearGradient id="paint0_linear" x1="22.7094" y1="18.6577" x2="47.7496" y2="21.2561" gradientUnits="userSpaceOnUse">
<stop stop-color="#632DD7"/>
<stop offset="1" stop-color="#C71A65"/>
</linearGradient>
<linearGradient id="paint1_linear" x1="11.371" y1="-7.79875e-07" x2="36.411" y2="2.59834" gradientUnits="userSpaceOnUse">
<stop stop-color="#632DD7"/>
<stop offset="1" stop-color="#C71A65"/>
</linearGradient>
</defs>
</svg>
