<svg width="45" height="45" viewBox="0 0 45 45" fill="none" xmlns="http://www.w3.org/2000/svg">
<g clip-path="url(#clip0)">
<path d="M38.4174 6.58267C29.641 -2.19379 15.3599 -2.19465 6.58254 6.58267C-2.19478 15.36 -2.19391 29.6402 6.58254 38.4175C15.359 47.1949 29.6401 47.1949 38.4174 38.4175C47.1939 29.6402 47.1939 15.3591 38.4174 6.58267ZM31.3769 31.377C30.7007 32.0532 29.6046 32.0532 28.9284 31.377L22.5 24.9485L15.7659 31.6826C15.0897 32.3588 13.9937 32.3588 13.3175 31.6826C12.6413 31.0064 12.6413 29.9104 13.3175 29.2342L20.0515 22.5001L13.6231 16.0717C12.9469 15.3955 12.9469 14.2985 13.6231 13.6232C14.2993 12.947 15.3954 12.947 16.0715 13.6232L22.5 20.0517L28.6219 13.9297C29.2981 13.2535 30.3942 13.2535 31.0704 13.9297C31.7466 14.6059 31.7466 15.702 31.0704 16.3781L24.9484 22.5001L31.3769 28.9286C32.0531 29.6047 32.0531 30.7008 31.3769 31.377Z" fill="url(#paint0_linear)"/>
</g>
<defs>
<linearGradient id="paint0_linear" x1="15.6665" y1="-1.46186e-06" x2="50.3356" y2="2.64423" gradientUnits="userSpaceOnUse">
<stop stop-color="#632DD7"/>
<stop offset="1" stop-color="#C71A65"/>
</linearGradient>
<clipPath id="clip0">
<rect width="45" height="45" fill="white"/>
</clipPath>
</defs>
</svg>
