<svg width="45" height="45" viewBox="0 0 45 45" fill="none" xmlns="http://www.w3.org/2000/svg">
<g clip-path="url(#clip0)">
<path d="M25.3126 18.7498C24.531 18.7498 23.8669 18.4765 23.3202 17.9296C22.7732 17.383 22.5001 16.7188 22.5001 15.9374V0H6.56253C5.78143 0 5.11731 0.273263 4.57047 0.820201C4.02353 1.36683 3.75017 2.03095 3.75017 2.81237V42.1876C3.75017 42.9693 4.02353 43.6334 4.57047 44.1801C5.11741 44.7265 5.78143 45.0001 6.56264 45.0001H38.4382C39.2192 45.0001 39.8829 44.7265 40.4296 44.1801C40.9764 43.633 41.25 42.9693 41.25 42.1876V18.7498H25.3126ZM33.75 36.5626C33.75 36.8358 33.6623 37.0606 33.4867 37.2361C33.3112 37.4115 33.0864 37.4995 32.8132 37.4995H12.1876C11.9143 37.4995 11.6896 37.4116 11.5137 37.2361C11.3383 37.0605 11.2502 36.8358 11.2502 36.5626V34.6874C11.2502 34.4135 11.338 34.1888 11.5137 34.0132C11.6897 33.8384 11.9144 33.7499 12.1876 33.7499H32.8132C33.0864 33.7499 33.3113 33.8384 33.4867 34.0132C33.6623 34.1888 33.75 34.4135 33.75 34.6874V36.5626ZM33.75 29.0624C33.75 29.3364 33.6623 29.5604 33.4867 29.7367C33.3112 29.9118 33.0864 30 32.8132 30H12.1876C11.9143 30 11.6896 29.9118 11.5137 29.7367C11.3383 29.5603 11.2502 29.3364 11.2502 29.0624V27.1872C11.2502 26.914 11.338 26.6892 11.5137 26.5137C11.6897 26.3382 11.9144 26.2504 12.1876 26.2504H32.8132C33.0864 26.2504 33.3113 26.3382 33.4867 26.5137C33.6622 26.6893 33.75 26.914 33.75 27.1872V29.0624Z" fill="url(#paint0_linear)"/>
<path d="M39.2584 11.1333L30.1177 1.99222C29.1407 1.01563 27.8512 0.380548 26.2499 0.0878906V15.0003H41.1625C40.8695 13.3983 40.2344 12.1094 39.2584 11.1333Z" fill="url(#paint1_linear)"/>
</g>
<defs>
<linearGradient id="paint0_linear" x1="16.8056" y1="-1.46185e-06" x2="45.7476" y2="1.83953" gradientUnits="userSpaceOnUse">
<stop stop-color="#632DD7"/>
<stop offset="1" stop-color="#C71A65"/>
</linearGradient>
<linearGradient id="paint1_linear" x1="31.4417" y1="0.0878901" x2="42.9308" y2="0.964192" gradientUnits="userSpaceOnUse">
<stop stop-color="#632DD7"/>
<stop offset="1" stop-color="#C71A65"/>
</linearGradient>
<clipPath id="clip0">
<rect width="45" height="45" fill="white"/>
</clipPath>
</defs>
</svg>
