<svg width="60" height="60" viewBox="0 0 60 60" fill="none" xmlns="http://www.w3.org/2000/svg">
<path d="M52.5334 41.7454L59.9999 34.2792L52.5334 26.8127L53.7364 25.6096C55.8178 23.5282 55.8178 20.1417 53.7368 18.0602C52.7284 17.0522 51.3876 16.4969 49.9616 16.4969C48.5362 16.4969 47.1954 17.0522 46.1874 18.0602L44.9844 19.2632L37.5178 11.7966L35.3146 14.0003V17.483C39.212 18.4118 42.1192 21.9233 42.1192 26.1008C42.1192 30.2788 39.212 33.7903 35.3146 34.7187V45.5178H28.851L27.5623 46.8064L37.5178 56.7614L44.9844 49.2948L46.0212 50.3321C48.1027 52.4135 51.4892 52.4135 53.5706 50.3321C55.6521 48.2506 55.6521 44.8641 53.5706 42.7827L52.5334 41.7454Z" fill="url(#paint0_linear)"/>
<path d="M31.7949 41.9984V31.4392H33.2611C36.205 31.4392 38.5995 29.0446 38.5995 26.1008C38.5995 23.1573 36.205 20.7628 33.2611 20.7628H31.7949V10.2036H21.2357V8.5025C21.2357 5.55862 18.8411 3.16406 15.8972 3.16406C12.9538 3.16406 10.5592 5.55862 10.5592 8.5025V10.2036H0V20.7628H1.46667C4.04938 20.7628 6.20911 22.6062 6.69983 25.0465C6.91269 25.3441 7.03949 25.7076 7.03949 26.1008C7.03949 26.494 6.91269 26.8575 6.69983 27.1555C6.20911 29.5953 4.04938 31.4392 1.46667 31.4392H0V41.9984H10.5592V40.2969C10.5592 37.3535 12.9538 34.959 15.8972 34.959C18.8411 34.959 21.2357 37.3535 21.2357 40.2969V41.9984H31.7949Z" fill="url(#paint1_linear)"/>
<defs>
<linearGradient id="paint0_linear" x1="38.8554" y1="11.7966" x2="63.9157" y2="13.1755" gradientUnits="userSpaceOnUse">
<stop stop-color="#632DD7"/>
<stop offset="1" stop-color="#C71A65"/>
</linearGradient>
<linearGradient id="paint1_linear" x1="13.4384" y1="3.16406" x2="43.1785" y2="5.41868" gradientUnits="userSpaceOnUse">
<stop stop-color="#632DD7"/>
<stop offset="1" stop-color="#C71A65"/>
</linearGradient>
</defs>
</svg>
