<svg width="42" height="42" viewBox="0 0 42 42" fill="none" xmlns="http://www.w3.org/2000/svg">
<g clip-path="url(#clip0)">
<path d="M20.9995 10.5003C23.899 10.5003 26.2494 8.14984 26.2494 5.2504C26.2494 2.35095 23.899 0.000488281 20.9995 0.000488281C18.1001 0.000488281 15.7496 2.35095 15.7496 5.2504C15.7496 8.14984 18.1001 10.5003 20.9995 10.5003Z" fill="url(#paint0_linear)"/>
<path d="M28.8639 24.7695L27.6722 15.4877C27.5383 14.1411 26.4148 13.1252 25.063 13.1252H23.6245C23.2754 13.1252 22.942 13.2644 22.6953 13.5085L20.9996 15.2042L19.3038 13.5085C19.0571 13.2644 18.7237 13.1252 18.3746 13.1252H16.9388C15.5843 13.1252 14.4608 14.1411 14.3295 15.4536L13.1352 24.7722C13.0879 25.1449 13.2034 25.5229 13.4528 25.8038C13.7022 26.0873 14.0592 26.25 14.4372 26.25H15.8546L16.9519 39.6373C17.0831 40.9813 18.2092 41.9997 19.5637 41.9997H22.438C23.7925 41.9997 24.916 40.9813 25.0525 39.6137L26.1471 26.25H27.5619C27.9399 26.25 28.2969 26.0873 28.5463 25.8038C28.7983 25.5229 28.9138 25.1449 28.8639 24.7695Z" fill="url(#paint1_linear)"/>
<path d="M34.1243 10.5003C37.0237 10.5003 39.3742 8.14984 39.3742 5.2504C39.3742 2.35095 37.0237 0.000488281 34.1243 0.000488281C31.2249 0.000488281 28.8744 2.35095 28.8744 5.2504C28.8744 8.14984 31.2249 10.5003 34.1243 10.5003Z" fill="url(#paint2_linear)"/>
<path d="M7.87478 0.000488281C4.97946 0.000488281 2.62488 2.35507 2.62488 5.2504C2.62488 8.14572 4.97946 10.5003 7.87478 10.5003C10.7675 10.5003 13.1247 8.14572 13.1247 5.2504C13.1247 2.35507 10.7675 0.000488281 7.87478 0.000488281Z" fill="url(#paint3_linear)"/>
<path d="M41.9887 24.7695L40.7969 15.4903C40.6631 14.1411 39.5422 13.1252 38.1877 13.1252H36.7493C36.4001 13.1252 36.0668 13.2644 35.82 13.5085L34.1243 15.2042L32.4286 13.5085C32.1818 13.2644 31.8485 13.1252 31.502 13.1252H30.0635C29.9008 13.1252 29.7538 13.183 29.5989 13.2119C29.9375 13.8104 30.2026 14.4587 30.2814 15.1858L31.4705 24.4362C31.6175 25.5623 31.2657 26.6963 30.5097 27.5494C30.1527 27.9589 29.696 28.2476 29.2078 28.4733L30.0792 37.0123C30.2131 38.3589 31.3366 39.3748 32.6911 39.3748H35.5654C36.9199 39.3748 38.0434 38.3563 38.1799 36.9887L39.2718 26.25H40.6867C41.0647 26.25 41.4217 26.0873 41.671 25.8038C41.923 25.5229 42.0385 25.1449 41.9887 24.7695Z" fill="url(#paint4_linear)"/>
<path d="M11.4814 27.5362C10.736 26.6936 10.3895 25.5623 10.5312 24.4414L11.7256 15.1202C11.7938 14.422 12.0511 13.792 12.3792 13.2092C12.2322 13.183 12.0931 13.1252 11.9382 13.1252H10.4997C10.1506 13.1252 9.81723 13.2644 9.57048 13.5085L7.87476 15.2042L6.17904 13.5085C5.9323 13.2644 5.59893 13.1252 5.25243 13.1252H3.81388C2.4594 13.1252 1.33592 14.1411 1.20467 15.4536L0.0103172 24.7722C-0.036932 25.1449 0.078566 25.5229 0.327937 25.8038C0.577307 26.0873 0.936926 26.25 1.31229 26.25H2.72977L3.827 37.0123C3.95825 38.3563 5.08435 39.3748 6.43883 39.3748H9.31315C10.6676 39.3748 11.7911 38.3563 11.9276 36.9887L12.7991 28.4707C12.3083 28.2424 11.8489 27.951 11.4814 27.5362Z" fill="url(#paint5_linear)"/>
</g>
<defs>
<linearGradient id="paint0_linear" x1="19.4051" y1="0.00048794" x2="27.4945" y2="0.617475" gradientUnits="userSpaceOnUse">
<stop stop-color="#632DD7"/>
<stop offset="1" stop-color="#C71A65"/>
</linearGradient>
<linearGradient id="paint1_linear" x1="18.6083" y1="13.1252" x2="30.7924" y2="13.6322" gradientUnits="userSpaceOnUse">
<stop stop-color="#632DD7"/>
<stop offset="1" stop-color="#C71A65"/>
</linearGradient>
<linearGradient id="paint2_linear" x1="32.5299" y1="0.00048794" x2="40.6192" y2="0.617475" gradientUnits="userSpaceOnUse">
<stop stop-color="#632DD7"/>
<stop offset="1" stop-color="#C71A65"/>
</linearGradient>
<linearGradient id="paint3_linear" x1="6.28037" y1="0.00048794" x2="14.3697" y2="0.617475" gradientUnits="userSpaceOnUse">
<stop stop-color="#632DD7"/>
<stop offset="1" stop-color="#C71A65"/>
</linearGradient>
<linearGradient id="paint4_linear" x1="33.6614" y1="13.1252" x2="43.5605" y2="13.4932" gradientUnits="userSpaceOnUse">
<stop stop-color="#632DD7"/>
<stop offset="1" stop-color="#C71A65"/>
</linearGradient>
<linearGradient id="paint5_linear" x1="4.45594" y1="13.1252" x2="14.3604" y2="13.4936" gradientUnits="userSpaceOnUse">
<stop stop-color="#632DD7"/>
<stop offset="1" stop-color="#C71A65"/>
</linearGradient>
<clipPath id="clip0">
<rect width="42" height="42" fill="white"/>
</clipPath>
</defs>
</svg>
