<svg width="66" height="58" viewBox="0 0 66 58" fill="none" xmlns="http://www.w3.org/2000/svg">
<g clip-path="url(#clip0)">
<path fill-rule="evenodd" clip-rule="evenodd" d="M47.387 50.5779L56.3338 37.7838H61.5607L47.4722 57.9868L47.384 57.9235V50.5799L47.387 50.5779Z" class="color-change"/>
<path fill-rule="evenodd" clip-rule="evenodd" d="M53.6498 46.6409L61.5556 57.9868H56.3338L50.8859 50.1954L53.6498 46.6399V46.6409ZM47.6628 38.053L47.387 38.4089V37.847L47.4753 37.7838L47.6628 38.053Z" class="color-change"/>
<path fill-rule="evenodd" clip-rule="evenodd" d="M49.5419 37.7838H45.2322V57.996H49.5419V37.7838Z" class="color-change"/>
<path fill-rule="evenodd" clip-rule="evenodd" d="M29.1764 37.7868H24.8667V57.999H29.1764V37.7868Z" class="color-change"/>
<path fill-rule="evenodd" clip-rule="evenodd" d="M29.1764 37.7878L25.6523 40.2836L38.0349 57.9909L41.556 55.4951L29.1723 37.7878H29.1764Z" class="color-change"/>
<path fill-rule="evenodd" clip-rule="evenodd" d="M42.3121 37.7868H38.0025V57.999H42.3121V37.7868Z" class="color-change"/>
<path fill-rule="evenodd" clip-rule="evenodd" d="M8.74301 37.7868H4.4334V57.999H8.74301V37.7868Z" class="color-change"/>
<path fill-rule="evenodd" clip-rule="evenodd" d="M8.08219 37.7868H12.9473C15.5573 37.866 18.0342 38.965 19.8526 40.8508C21.671 42.7367 22.688 45.2611 22.688 47.8888C22.688 50.5165 21.671 53.0408 19.8526 54.9267C18.0342 56.8126 15.5573 57.9117 12.9473 57.9909H8.08219V54.1375H12.7709C14.384 54.0867 15.9142 53.4061 17.0374 52.2399C18.1606 51.0737 18.7887 49.5134 18.7887 47.8893C18.7887 46.2653 18.1606 44.705 17.0374 43.5388C15.9142 42.3725 14.384 41.692 12.7709 41.6412H8.08627V37.7868H8.08219Z" class="color-change"/>
<path fill-rule="evenodd" clip-rule="evenodd" d="M32.9995 9.5976L34.0841 11.2132C34.5331 11.8772 34.9841 12.5391 35.4463 13.196C36.0605 14.067 36.694 14.9299 37.364 15.753C37.9569 16.4843 38.5802 17.1941 39.2411 17.8632C40.3421 19.0006 41.5983 19.9746 42.972 20.7558C43.7795 21.2014 44.6343 21.5545 45.5201 21.8084C46.122 21.9781 46.736 22.1008 47.3567 22.1756C47.9197 22.242 48.4864 22.2723 49.0533 22.2663C50.0389 22.2571 51.021 22.145 51.9836 21.9318C52.9188 21.7224 53.8315 21.4222 54.709 21.0353C55.6986 20.5985 56.6442 20.0671 57.5328 19.4482C58.4352 18.8214 59.2845 18.1203 60.0718 17.3522C60.6423 16.7988 61.1811 16.2131 61.6853 15.598C61.8772 15.3641 62.0627 15.1261 62.2418 14.884C62.3594 14.7239 62.4739 14.5627 62.5823 14.3975L62.5945 14.3791L66.0001 16.5924L65.918 16.7178C65.5322 17.2873 65.1171 17.8361 64.6744 18.362C64.1127 19.0349 63.5162 19.6777 62.8874 20.2876C60.9837 22.1641 58.7627 23.6838 56.3287 24.7754C55.9334 24.9488 55.5327 25.1089 55.1266 25.2558C54.5282 25.4715 53.9193 25.6563 53.3022 25.8096C52.4631 26.0188 51.6102 26.1674 50.75 26.2543C50.2179 26.3084 49.6828 26.3379 49.1486 26.3451C49.0473 26.3451 48.9459 26.3451 48.8445 26.3451C48.3043 26.3451 47.7641 26.3155 47.2229 26.2625C46.4225 26.1838 45.6291 26.0454 44.8491 25.8484C43.9285 25.615 43.0303 25.2996 42.1652 24.9059C41.5856 24.6414 41.0212 24.3445 40.4745 24.0165C40.0563 23.7656 39.6485 23.4988 39.2512 23.2159C38.9708 23.0119 38.6951 22.8039 38.4241 22.5917C36.6183 21.1118 34.9979 19.4164 33.5986 17.543C33.3958 17.2798 33.1952 17.0143 32.9965 16.7464V9.59561L32.9995 9.5976ZM32.9995 16.7485C32.638 16.2106 32.2765 15.6724 31.915 15.1339C31.467 14.4689 31.016 13.808 30.5539 13.1501C29.9386 12.2791 29.3062 11.4162 28.6352 10.5931C28.0452 9.85898 27.4187 9.15532 26.7581 8.48484C25.6576 7.34655 24.4013 6.37222 23.0271 5.59129C21.6707 4.83679 20.1816 4.35464 18.6425 4.17157C18.0795 4.10427 17.5127 4.07358 16.9458 4.07975C15.9601 4.08888 14.9781 4.20132 14.0156 4.41529C13.0808 4.62438 12.1684 4.92428 11.2911 5.31079C10.302 5.74847 9.35645 6.2799 8.46735 6.89785C7.5646 7.5247 6.71505 8.22575 5.92738 8.99382C5.3568 9.54759 4.81803 10.1337 4.31376 10.7491C4.12253 10.9817 3.93704 11.2197 3.7573 11.4631C3.64074 11.6222 3.5252 11.7834 3.41674 11.9486L3.40561 11.9669L6.10352e-05 9.75367C0.0264136 9.71185 0.0537971 9.67002 0.0811632 9.62923C0.467535 9.05958 0.882942 8.51048 1.32578 7.98409C1.88687 7.31091 2.48302 6.66813 3.1117 6.05844C5.0154 4.18201 7.23644 2.66227 9.67046 1.57067C10.0657 1.39728 10.4664 1.23714 10.8725 1.09027C11.4709 0.87461 12.0798 0.689793 12.6969 0.536471C13.5366 0.3282 14.3898 0.179629 15.2501 0.0918026C15.7822 0.0377458 16.3163 0.00913609 16.8515 0.000976562C16.9528 0.000976562 17.0543 0.000976562 17.1556 0.000976562C17.6958 0.000976562 18.2371 0.0295285 18.7773 0.0835853C19.5773 0.161957 20.3704 0.300059 21.15 0.496692C22.0712 0.729989 22.9697 1.04572 23.8349 1.44012C24.4146 1.70408 24.9791 2.00071 25.5256 2.32853C25.9432 2.57943 26.3506 2.84661 26.7479 3.13015C27.0297 3.33414 27.3054 3.54189 27.575 3.75336C29.3804 5.23406 31.0011 6.92931 32.4016 8.80208C32.6043 9.06726 32.807 9.33144 33.0026 9.59866V16.7495L32.9995 16.7485Z" class="color-change"/>
<path fill-rule="evenodd" clip-rule="evenodd" d="M27.2314 22.4959C27.1138 22.3408 27.0054 22.1776 26.902 22.0134C26.7104 21.7074 26.5351 21.4014 26.3688 21.0791C26.1479 20.6569 25.9421 20.2255 25.7455 19.79C25.6056 19.4806 25.4705 19.1691 25.3401 18.8557L28.7446 16.4527L28.8622 16.7485C29.1338 17.4247 29.4207 18.0958 29.7399 18.7506C29.8352 18.9444 29.9325 19.1371 30.0359 19.3269C29.2826 20.5327 28.3348 21.6038 27.2314 22.4959Z" fill="url(#paint0_linear)"/>
<path fill-rule="evenodd" clip-rule="evenodd" d="M24.4268 16.5078C24.3508 16.2987 24.2768 16.0896 24.2079 15.8785C24.062 15.431 23.9336 14.9785 23.8228 14.5209C23.6087 13.6338 23.4469 12.7346 23.3383 11.8283C23.21 10.7724 23.1362 9.71064 23.1173 8.6471C23.1011 7.83523 23.1126 7.02336 23.1518 6.21148C23.165 5.93916 23.1812 5.66577 23.2015 5.39548C23.2228 5.10582 23.2471 4.8182 23.2785 4.52955V4.50714L27.3054 4.97634C27.2973 5.05385 27.2892 5.13133 27.2821 5.20885C27.2729 5.31084 27.2638 5.40568 27.2557 5.50461C27.2023 6.19205 27.1716 6.88022 27.1635 7.56902C27.1564 8.22994 27.1635 8.8949 27.204 9.5497C27.2436 10.2871 27.3054 11.0235 27.4148 11.7538C27.4959 12.3219 27.5993 12.887 27.7321 13.4449C27.7808 13.6489 27.8334 13.8528 27.8912 14.0568L24.4238 16.5047L24.4268 16.5078Z" class="color-change"/>
<path fill-rule="evenodd" clip-rule="evenodd" d="M19.1118 25.7096C19.055 25.5852 18.9992 25.4608 18.9445 25.3364C18.7634 24.9229 18.5874 24.5075 18.4164 24.09C17.9816 23.0242 17.5762 21.9481 17.1911 20.8609C16.8397 19.8715 16.5035 18.8764 16.1826 17.8755C16.0927 17.5919 16.0028 17.308 15.913 17.0238C15.8329 16.7668 15.7528 16.5088 15.6788 16.2497C15.5187 15.6908 15.3748 15.1278 15.2531 14.5525C15.241 14.4944 15.2278 14.4373 15.2157 14.3792L19.3803 14.3944C19.4695 14.7483 19.5658 15.1012 19.6722 15.4511C19.7371 15.6602 19.803 15.8692 19.8679 16.0783C20.3939 17.7419 20.9544 19.3952 21.5727 21.0261C21.8119 21.6564 22.0582 22.2836 22.3176 22.9048C22.5112 23.3689 22.7109 23.8299 22.9258 24.2848L22.9673 24.3705L23.1873 24.7999C21.8761 25.2867 20.5055 25.5927 19.1128 25.7096H19.1118Z" fill="url(#paint1_linear)"/>
<path fill-rule="evenodd" clip-rule="evenodd" d="M14.798 11.9333C14.7605 11.6518 14.7251 11.3724 14.6967 11.0919C14.5538 9.8506 14.4676 8.60118 14.425 7.35175C14.3899 6.30257 14.3855 5.25169 14.4119 4.19911C14.422 3.79113 14.4372 3.38315 14.4575 2.97517C14.4757 2.61513 14.497 2.2561 14.5264 1.89708V1.86957L18.5654 2.22248C18.5584 2.30203 18.5533 2.3816 18.5472 2.46115C18.5391 2.57946 18.531 2.69778 18.5239 2.81711C18.4631 3.87377 18.4381 4.93242 18.4489 5.99316C18.459 7.1151 18.5056 8.23708 18.5979 9.35902C18.6688 10.2249 18.7661 11.0929 18.9019 11.9496L14.8021 11.9354L14.798 11.9333Z" class="color-change"/>
<path fill-rule="evenodd" clip-rule="evenodd" d="M9.3025 23.2547C9.18087 22.9371 9.06164 22.6192 8.94475 22.301C8.76636 21.8135 8.59505 21.3236 8.43085 20.8313L13.0527 21.7023C13.3074 22.3687 13.5733 23.03 13.8503 23.6861C14.1017 24.2818 14.3571 24.8744 14.6318 25.4608C12.7295 25.0819 10.9191 24.3325 9.3025 23.2547Z" fill="url(#paint2_linear)"/>
<path fill-rule="evenodd" clip-rule="evenodd" d="M7.77207 4.75291L10.0526 4.65094V4.7244C10.0962 5.65152 10.1539 6.57763 10.2238 7.50272C10.3137 8.72665 10.4252 9.95055 10.5583 11.1745C10.6708 12.1873 10.7996 13.197 10.9638 14.2027C11.0823 14.9544 11.2161 15.7051 11.3884 16.4466C11.5608 17.1881 11.7725 17.9459 12.0026 18.6905C12.0391 18.8077 12.0756 18.924 12.1131 19.0413L7.64228 18.1988C7.57134 17.9265 7.50348 17.6542 7.43962 17.3829C7.24502 16.5455 7.09295 15.6999 6.95814 14.8514C6.78989 13.7825 6.65407 12.7095 6.53346 11.6325C6.38548 10.3004 6.26793 8.96324 6.17063 7.6261C6.14529 7.28034 6.12197 6.93561 6.09967 6.58985C6.59797 5.92929 7.15836 5.31856 7.77306 4.76617L7.77207 4.75291Z" class="color-change"/>
<path fill-rule="evenodd" clip-rule="evenodd" d="M38.7678 3.85031C38.8853 4.00534 38.9937 4.16849 39.0971 4.3327C39.2887 4.63869 39.464 4.94978 39.6302 5.26699C39.8522 5.69026 40.058 6.12065 40.2536 6.55617C40.3935 6.86623 40.5286 7.17799 40.659 7.49145L37.2545 9.89551C37.2159 9.79351 37.1765 9.69146 37.1369 9.59763C36.8663 8.92141 36.5794 8.25133 36.2591 7.59653C36.1652 7.40206 36.0669 7.20965 35.9642 7.01926C36.7171 5.81346 37.6647 4.74245 38.7678 3.85031Z" fill="url(#paint3_linear)"/>
<path fill-rule="evenodd" clip-rule="evenodd" d="M41.5692 9.83936C41.6452 10.0433 41.7192 10.2565 41.7881 10.4677C41.9351 10.9154 42.0628 11.3682 42.1743 11.8262C42.3877 12.7132 42.5495 13.6119 42.6588 14.5179C42.7863 15.5738 42.8597 16.6356 42.8787 17.6991C42.8949 18.511 42.8835 19.3231 42.8443 20.1357C42.8307 20.4077 42.8146 20.6797 42.7956 20.9516C42.7744 21.2403 42.749 21.5289 42.7176 21.8166V21.839L38.6907 21.3698C38.6998 21.2934 38.7069 21.2158 38.715 21.1383C38.7242 21.0363 38.7322 20.9404 38.7403 20.8415C38.7937 20.1554 38.8245 19.4673 38.8326 18.7771C38.8407 18.1169 38.8275 17.4567 38.7931 16.7964C38.7535 16.059 38.6856 15.3236 38.5812 14.5923C38.5001 14.0242 38.3968 13.4591 38.265 12.9012C38.2153 12.6972 38.1636 12.4933 38.1048 12.2893L41.5722 9.84141L41.5692 9.83936Z" class="color-change"/>
<path fill-rule="evenodd" clip-rule="evenodd" d="M46.8884 0.637482C46.9441 0.760895 46.9998 0.886337 47.0546 1.00975C47.237 1.42317 47.413 1.83899 47.5826 2.25716C48.0175 3.323 48.4229 4.39902 48.8091 5.48525C49.1604 6.47596 49.4963 7.47146 49.8166 8.47168C49.9078 8.75421 49.997 9.03873 50.0862 9.3233C50.1662 9.58032 50.2463 9.83326 50.3203 10.0964C50.4818 10.6574 50.6237 11.2231 50.746 11.7936C50.7592 11.8517 50.7713 11.9099 50.7835 11.968L46.6188 11.9527C46.5309 11.5978 46.4336 11.2452 46.3268 10.895C46.263 10.686 46.1971 10.4769 46.1312 10.2678C45.6052 8.60426 45.0447 6.95092 44.4264 5.32004C44.1886 4.68971 43.9402 4.06349 43.6815 3.44132C43.4879 2.97827 43.2892 2.51619 43.0733 2.06231L43.0328 1.97665L42.8128 1.54624C44.124 1.05959 45.4947 0.753902 46.8874 0.637482H46.8884Z" fill="url(#paint4_linear)"/>
<path fill-rule="evenodd" clip-rule="evenodd" d="M51.2052 14.4179C51.2437 14.6973 51.2781 14.9779 51.3065 15.2583C51.4484 16.4996 51.5346 17.748 51.5771 18.9974C51.6129 20.0479 51.6173 21.0988 51.5903 22.15C51.5802 22.558 51.5649 22.966 51.5447 23.374C51.5274 23.734 51.5051 24.094 51.4757 24.4531V24.4806L47.4367 24.1277C47.4435 24.0482 47.4496 23.9686 47.455 23.8891C47.4631 23.7697 47.4712 23.6514 47.4783 23.5331C47.5391 22.4758 47.5641 21.4167 47.5533 20.356C47.5431 19.2341 47.4965 18.1121 47.4053 16.9902C47.3343 16.1232 47.236 15.2563 47.1012 14.3995L51.2001 14.4148L51.2052 14.4179Z" class="color-change"/>
<path fill-rule="evenodd" clip-rule="evenodd" d="M56.6966 3.09548C56.8196 3.41302 56.9389 3.73128 57.0544 4.05018C57.2328 4.53771 57.4044 5.02761 57.5693 5.5199L52.9464 4.64886C52.6923 3.98318 52.4265 3.32191 52.1487 2.66507C51.8974 2.06942 51.642 1.47685 51.3673 0.890381C53.2697 1.26829 55.0802 2.01741 56.6966 3.09548Z" fill="url(#paint5_linear)"/>
<path fill-rule="evenodd" clip-rule="evenodd" d="M58.2281 21.5942L55.9475 21.6962C55.9475 21.6707 55.9475 21.6462 55.9475 21.6217C55.905 20.6956 55.8462 19.7685 55.7773 18.8434C55.6861 17.6195 55.5746 16.3956 55.4418 15.1716C55.3303 14.1598 55.2006 13.1491 55.0425 12.1434C54.9229 11.3917 54.7901 10.641 54.6178 9.89954C54.4455 9.15804 54.2326 8.39919 54.0036 7.65565C53.9671 7.53836 53.9296 7.4211 53.8921 7.3038L58.3629 8.14626C58.4338 8.41859 58.5017 8.6909 58.5656 8.9622C58.7602 9.79856 58.9122 10.6451 59.046 11.4927C59.2153 12.5616 59.3501 13.6346 59.4717 14.7116C59.6191 16.0444 59.7397 17.3798 59.8336 18.7179C59.8593 19.0634 59.8829 19.4088 59.9045 19.7542C59.4066 20.4151 58.8466 21.0261 58.2321 21.5789L58.2281 21.5942Z" class="color-change"/>
</g>
<defs>
<linearGradient id="paint0_linear" x1="29.1625" y1="20.6587" x2="25.8569" y2="18.6486" gradientUnits="userSpaceOnUse">
<stop stop-color="#80B5F9"/>
<stop offset="1" stop-color="#F43973"/>
</linearGradient>
<linearGradient id="paint1_linear" x1="21.1705" y1="25.5397" x2="14.0703" y2="15.8291" gradientUnits="userSpaceOnUse">
<stop stop-color="#80B5F9"/>
<stop offset="1" stop-color="#F43973"/>
</linearGradient>
<linearGradient id="paint2_linear" x1="11.4445" y1="24.4979" x2="11.5691" y2="21.0083" gradientUnits="userSpaceOnUse">
<stop stop-color="#80B5F9"/>
<stop offset="1" stop-color="#F43973"/>
</linearGradient>
<linearGradient id="paint3_linear" x1="36.8374" y1="5.68805" x2="40.1433" y2="7.69731" gradientUnits="userSpaceOnUse">
<stop stop-color="#80B5F9"/>
<stop offset="1" stop-color="#F43973"/>
</linearGradient>
<linearGradient id="paint4_linear" x1="45.746" y1="0.773448" x2="49.6674" y2="11.8397" gradientUnits="userSpaceOnUse">
<stop stop-color="#80B5F9"/>
<stop offset="1" stop-color="#F43973"/>
</linearGradient>
<linearGradient id="paint5_linear" x1="53.6868" y1="0.265396" x2="54.5725" y2="6.24519" gradientUnits="userSpaceOnUse">
<stop stop-color="#80B5F9"/>
<stop offset="1" stop-color="#F43973"/>
</linearGradient>
<clipPath id="clip0">
<rect width="66" height="58" class="color-change"/>
</clipPath>
<style>
	.color-change{
		fill: red;
	}
	.is-black .color-change{
		fill: blue;
	}
</style>
</defs>
</svg>
