<svg width="97" height="84" viewBox="0 0 97 84" fill="none" xmlns="http://www.w3.org/2000/svg">
<g clip-path="url(#clip0)">
<path fill-rule="evenodd" clip-rule="evenodd" d="M69.6445 73.2501L82.7935 54.7207H90.4755L69.7696 83.9802L69.6401 83.8886V73.253L69.6445 73.2501Z" fill="url(#paint0_linear)"/>
<path fill-rule="evenodd" clip-rule="evenodd" d="M78.8489 67.5483L90.468 83.9802H82.7935L74.7867 72.6961L78.8489 67.5468V67.5483ZM70.0497 55.1105L69.6445 55.6261V54.8123L69.7741 54.7207L70.0497 55.1105Z" fill="url(#paint1_linear)"/>
<path fill-rule="evenodd" clip-rule="evenodd" d="M72.8115 54.7207H66.4776V83.9935H72.8115V54.7207Z" fill="url(#paint2_linear)"/>
<path fill-rule="evenodd" clip-rule="evenodd" d="M42.8804 54.7246H36.5465V83.9975H42.8804V54.7246Z" fill="url(#paint3_linear)"/>
<path fill-rule="evenodd" clip-rule="evenodd" d="M42.8804 54.7246L37.701 58.3392L55.8997 83.9843L61.0747 80.3696L42.8744 54.7246H42.8804Z" fill="url(#paint4_linear)"/>
<path fill-rule="evenodd" clip-rule="evenodd" d="M62.1859 54.7246H55.8521V83.9975H62.1859V54.7246Z" fill="url(#paint5_linear)"/>
<path fill-rule="evenodd" clip-rule="evenodd" d="M12.8495 54.7246H6.51566V83.9975H12.8495V54.7246Z" fill="url(#paint6_linear)"/>
<path fill-rule="evenodd" clip-rule="evenodd" d="M11.8783 54.7246H19.0285C22.8645 54.8393 26.5047 56.431 29.1772 59.1622C31.8497 61.8934 33.3444 65.5495 33.3444 69.3552C33.3444 73.1608 31.8497 76.8167 29.1772 79.5479C26.5047 82.2792 22.8645 83.871 19.0285 83.9857H11.8783V78.4049H18.7693C21.14 78.3313 23.3889 77.3457 25.0397 75.6567C26.6905 73.9677 27.6136 71.708 27.6136 69.3559C27.6136 67.0038 26.6905 64.7441 25.0397 63.0551C23.3889 61.3661 21.14 60.3804 18.7693 60.3069H11.8843V54.7246H11.8783Z" fill="url(#paint7_linear)"/>
<path fill-rule="evenodd" clip-rule="evenodd" d="M48.4992 13.8986L50.0931 16.2384C50.7531 17.2001 51.4159 18.1587 52.0952 19.11C52.9979 20.3715 53.929 21.6212 54.9136 22.8133C55.785 23.8724 56.7011 24.9004 57.6724 25.8694C59.2905 27.5167 61.1367 28.9273 63.1557 30.0587C64.3426 30.704 65.5988 31.2154 66.9006 31.5832C67.7852 31.8289 68.6877 32.0067 69.5999 32.1149C70.4274 32.2111 71.2602 32.255 72.0934 32.2464C73.542 32.233 74.9853 32.0707 76.4 31.7618C77.7744 31.4586 79.1159 31.0238 80.4056 30.4635C81.86 29.831 83.2498 29.0612 84.5557 28.165C85.882 27.2571 87.1301 26.2418 88.2872 25.1294C89.1258 24.3279 89.9175 23.4797 90.6586 22.5888C90.9407 22.25 91.2133 21.9053 91.4765 21.5547C91.6493 21.3228 91.8176 21.0894 91.977 20.8501L91.9949 20.8235L97 24.029L96.8794 24.2106C96.3124 25.0354 95.7023 25.8302 95.0516 26.5918C94.2261 27.5664 93.3495 28.4974 92.4254 29.3807C89.6275 32.0983 86.3633 34.2993 82.786 35.8802C82.2051 36.1313 81.6161 36.3632 81.0193 36.5759C80.1398 36.8883 79.2449 37.156 78.338 37.378C77.1047 37.6809 75.8512 37.8962 74.5871 38.0221C73.805 38.1004 73.0186 38.1432 72.2335 38.1535C72.0846 38.1535 71.9355 38.1535 71.7866 38.1535C70.9926 38.1535 70.1987 38.1107 69.4032 38.0339C68.2269 37.92 67.0608 37.7195 65.9145 37.4342C64.5614 37.0962 63.2414 36.6394 61.97 36.0693C61.1182 35.6862 60.2886 35.2561 59.4852 34.7812C58.8705 34.4178 58.2712 34.0313 57.6873 33.6216C57.2752 33.3262 56.8699 33.0249 56.4717 32.7176C53.8177 30.5742 51.4362 28.1189 49.3796 25.4057C49.0817 25.0246 48.7867 24.64 48.4948 24.252V13.8957L48.4992 13.8986ZM48.4992 24.255C47.9679 23.476 47.4366 22.6966 46.9053 21.9166C46.2469 20.9535 45.5841 19.9963 44.9048 19.0435C44.0006 17.7821 43.0711 16.5324 42.0849 15.3403C41.2178 14.2771 40.297 13.258 39.3262 12.287C37.7088 10.6384 35.8624 9.22732 33.8428 8.09632C31.8493 7.0036 29.6608 6.30531 27.3987 6.04017C26.5712 5.9427 25.7383 5.89825 24.9051 5.90718C23.4564 5.92041 22.0131 6.08326 20.5986 6.39314C19.2247 6.69596 17.8837 7.1303 16.5945 7.69007C15.1407 8.32396 13.7511 9.09362 12.4443 9.98857C11.1176 10.8964 9.86901 11.9117 8.71137 13.0241C7.87279 13.8261 7.08095 14.6749 6.33982 15.5663C6.05878 15.9031 5.78616 16.2478 5.522 16.6003C5.35069 16.8308 5.18088 17.0642 5.02149 17.3035L5.00512 17.33L0 14.1246C0.0387303 14.064 0.0789757 14.0034 0.119196 13.9444C0.687046 13.1194 1.29757 12.3241 1.94841 11.5617C2.77303 10.5868 3.6492 9.65588 4.57316 8.77287C7.37104 6.05529 10.6353 3.85429 14.2126 2.27335C14.7935 2.02223 15.3824 1.7903 15.9792 1.57759C16.8587 1.26526 17.7536 0.997597 18.6605 0.775543C19.8945 0.473911 21.1485 0.258738 22.413 0.131541C23.195 0.0532519 23.98 0.0118173 24.7665 0C24.9155 0 25.0645 0 25.2135 0C26.0074 0 26.8029 0.041351 27.5968 0.11964C28.7726 0.233144 29.9382 0.433154 31.084 0.717932C32.4378 1.05581 33.7584 1.51307 35.03 2.08428C35.882 2.46657 36.7116 2.89616 37.5148 3.37094C38.1285 3.73432 38.7273 4.12126 39.3113 4.53191C39.7254 4.82734 40.1305 5.12822 40.5268 5.43448C43.1803 7.57894 45.5622 10.0341 47.6204 12.7464C47.9183 13.1305 48.2162 13.5131 48.5037 13.9001V24.2564L48.4992 24.255Z" fill="url(#paint8_linear)"/>
<path fill-rule="evenodd" clip-rule="evenodd" d="M40.0218 32.5784C39.849 32.3539 39.6896 32.1175 39.5376 31.8797C39.2561 31.4365 38.9984 30.9934 38.7541 30.5266C38.4294 29.915 38.127 29.2902 37.838 28.6595C37.6324 28.2114 37.4338 27.7604 37.2421 27.3064L42.2458 23.8262L42.4186 24.2546C42.8178 25.234 43.2394 26.2059 43.7086 27.1542C43.8486 27.4349 43.9916 27.714 44.1435 27.9888C43.0364 29.7352 41.6434 31.2864 40.0218 32.5784Z" fill="url(#paint9_linear)"/>
<path fill-rule="evenodd" clip-rule="evenodd" d="M35.9 23.9056C35.7882 23.6028 35.6795 23.3 35.5782 22.9942C35.3637 22.3462 35.1751 21.6909 35.0122 21.0281C34.6976 19.7433 34.4598 18.4411 34.3001 17.1284C34.1116 15.5992 34.0032 14.0615 33.9754 12.5212C33.9516 11.3454 33.9684 10.1696 34.026 8.99375C34.0454 8.59935 34.0692 8.2034 34.099 7.81195C34.1303 7.39244 34.1661 6.97588 34.2122 6.55785V6.52539L40.1305 7.20492C40.1186 7.31718 40.1067 7.42939 40.0963 7.54166C40.0829 7.68937 40.0695 7.82672 40.0575 7.97C39.9791 8.9656 39.9339 9.96226 39.922 10.9598C39.9115 11.917 39.922 12.8801 39.9816 13.8284C40.0397 14.8964 40.1305 15.9629 40.2914 17.0206C40.4105 17.8433 40.5626 18.6617 40.7577 19.4697C40.8292 19.7651 40.9066 20.0605 40.9916 20.356L35.8955 23.9012L35.9 23.9056Z" fill="url(#paint10_linear)"/>
<path fill-rule="evenodd" clip-rule="evenodd" d="M28.0884 37.2319C28.005 37.0517 27.923 36.8715 27.8426 36.6913C27.5764 36.0926 27.3177 35.4909 27.0665 34.8863C26.4274 33.3426 25.8316 31.7842 25.2656 30.2096C24.7491 28.7767 24.2551 27.3355 23.7834 25.8859C23.6513 25.4753 23.5192 25.0641 23.3872 24.6525C23.2695 24.2802 23.1518 23.9065 23.043 23.5313C22.8077 22.7219 22.5962 21.9065 22.4174 21.0734C22.3995 20.9892 22.3802 20.9065 22.3623 20.8223L28.4831 20.8444C28.6142 21.3569 28.7557 21.868 28.9122 22.3747C29.0075 22.6775 29.1043 22.9803 29.1996 23.2831C29.9728 25.6924 30.7965 28.0869 31.7052 30.4489C32.0568 31.3617 32.4187 32.2702 32.8001 33.1697C33.0846 33.8419 33.3781 34.5096 33.6939 35.1684L33.7549 35.2924L34.0782 35.9143C32.1512 36.6194 30.1368 37.0626 28.0899 37.2319H28.0884Z" fill="url(#paint11_linear)"/>
<path fill-rule="evenodd" clip-rule="evenodd" d="M21.7485 17.2802C21.6934 16.8725 21.6413 16.4677 21.5996 16.0615C21.3895 14.2638 21.2629 12.4543 21.2003 10.6448C21.1487 9.12529 21.1422 7.60332 21.181 6.0789C21.1959 5.48804 21.2182 4.89716 21.248 4.30629C21.2748 3.78486 21.3061 3.26489 21.3493 2.74493V2.70508L27.2855 3.21619C27.2751 3.3314 27.2676 3.44664 27.2587 3.56185C27.2468 3.7332 27.2348 3.90455 27.2244 4.07738C27.135 5.60771 27.0983 7.14093 27.1142 8.67718C27.1291 10.302 27.1976 11.927 27.3331 13.5519C27.4374 14.806 27.5804 16.063 27.78 17.3038L21.7545 17.2832L21.7485 17.2802Z" fill="url(#paint12_linear)"/>
<path fill-rule="evenodd" clip-rule="evenodd" d="M13.6718 33.6777C13.493 33.2178 13.3178 32.7574 13.146 32.2965C12.8838 31.5904 12.632 30.8809 12.3907 30.168L19.1834 31.4295C19.5578 32.3945 19.9485 33.3522 20.3557 34.3025C20.7251 35.1652 21.1005 36.0234 21.5042 36.8728C18.7084 36.3241 16.0477 35.2386 13.6718 33.6777Z" fill="url(#paint13_linear)"/>
<path fill-rule="evenodd" clip-rule="evenodd" d="M11.4225 6.88205L14.7742 6.73438V6.84076C14.8382 8.1835 14.923 9.52475 15.0258 10.8645C15.1579 12.6371 15.3218 14.4097 15.5174 16.1823C15.6828 17.6491 15.872 19.1115 16.1133 20.5679C16.2876 21.6566 16.4842 22.7438 16.7375 23.8177C16.9907 24.8916 17.302 25.9891 17.6401 27.0675C17.6938 27.2373 17.7474 27.4057 17.8025 27.5756L11.2318 26.3555C11.1275 25.9611 11.0277 25.5667 10.9339 25.1738C10.6479 23.961 10.4244 22.7364 10.2263 21.5074C9.97899 19.9593 9.77937 18.4054 9.60211 16.8456C9.38462 14.9164 9.21187 12.9798 9.06887 11.0432C9.03162 10.5425 8.99735 10.0432 8.96458 9.54245C9.69692 8.58578 10.5205 7.70127 11.424 6.90126L11.4225 6.88205Z" fill="url(#paint14_linear)"/>
<path fill-rule="evenodd" clip-rule="evenodd" d="M56.9768 5.57422C57.1496 5.79875 57.3089 6.03503 57.4608 6.27286C57.7424 6.716 58.0001 7.16656 58.2444 7.62596C58.5706 8.23898 58.8731 8.8623 59.1606 9.49305C59.3661 9.9421 59.5647 10.3936 59.7564 10.8476L54.7527 14.3293C54.6961 14.1816 54.638 14.0338 54.5799 13.8979C54.1822 12.9186 53.7606 11.9481 53.2899 10.9998C53.1518 10.7181 53.0073 10.4395 52.8564 10.1637C53.963 8.41739 55.3556 6.86628 56.9768 5.57422Z" fill="url(#paint15_linear)"/>
<path fill-rule="evenodd" clip-rule="evenodd" d="M61.0941 14.248C61.2058 14.5435 61.3145 14.8522 61.4158 15.158C61.6318 15.8065 61.8195 16.4623 61.9833 17.1255C62.297 18.4101 62.5348 19.7118 62.6954 21.0238C62.8828 22.5531 62.9906 24.0909 63.0186 25.6311C63.0425 26.8069 63.0256 27.9832 62.968 29.16C62.9481 29.5539 62.9243 29.9478 62.8965 30.3417C62.8653 30.7597 62.828 31.1778 62.7818 31.5944V31.6268L56.8635 30.9474C56.8769 30.8366 56.8874 30.7243 56.8993 30.612C56.9127 30.4643 56.9246 30.3255 56.9365 30.1822C57.0149 29.1886 57.0601 28.1919 57.072 27.1924C57.084 26.2362 57.0646 25.28 57.014 24.3238C56.9559 23.2558 56.8561 22.1908 56.7026 21.1316C56.5835 20.3089 56.4315 19.4905 56.2379 18.6825C56.1649 18.3871 56.0889 18.0917 56.0025 17.7962L61.0985 14.251L61.0941 14.248Z" fill="url(#paint16_linear)"/>
<path fill-rule="evenodd" clip-rule="evenodd" d="M68.9116 0.921875C68.9935 1.10061 69.0754 1.28229 69.1559 1.46102C69.424 2.05976 69.6827 2.66198 69.932 3.26762C70.571 4.81125 71.1669 6.36962 71.7345 7.94279C72.2509 9.3776 72.7445 10.8194 73.2152 12.268C73.3492 12.6771 73.4803 13.0892 73.6114 13.5013C73.7291 13.8736 73.8467 14.2399 73.9554 14.621C74.1928 15.4334 74.4014 16.2528 74.5811 17.079C74.6005 17.1632 74.6184 17.2474 74.6362 17.3316L68.5154 17.3094C68.3863 16.7954 68.2432 16.2848 68.0863 15.7776C67.9925 15.4748 67.8956 15.172 67.7988 14.8692C67.0257 12.46 66.2019 10.0655 65.2933 7.70351C64.9437 6.79062 64.5788 5.88368 64.1984 4.98261C63.9139 4.31198 63.622 3.64276 63.3047 2.98542L63.245 2.86136L62.9218 2.23801C64.8488 1.53321 66.8633 1.09048 68.9101 0.921875H68.9116Z" fill="url(#paint17_linear)"/>
<path fill-rule="evenodd" clip-rule="evenodd" d="M75.256 20.8801C75.3126 21.2849 75.3632 21.6911 75.4049 22.0973C75.6134 23.895 75.7401 25.703 75.8027 27.5125C75.8553 29.034 75.8618 30.556 75.822 32.0784C75.8071 32.6693 75.7847 33.2602 75.7549 33.851C75.7296 34.3725 75.6968 34.8939 75.6536 35.4138V35.4538L69.7175 34.9427C69.7274 34.8275 69.7364 34.7122 69.7443 34.597C69.7562 34.4242 69.7682 34.2528 69.7786 34.0815C69.868 32.5502 69.9047 31.0164 69.8888 29.4801C69.8739 27.8553 69.8054 26.2304 69.6713 24.6056C69.567 23.35 69.4226 22.0943 69.2244 20.8535L75.2485 20.8757L75.256 20.8801Z" fill="url(#paint18_linear)"/>
<path fill-rule="evenodd" clip-rule="evenodd" d="M83.3267 4.4807C83.5074 4.94059 83.6828 5.40152 83.8526 5.86337C84.1148 6.56946 84.367 7.27895 84.6093 7.99193L77.8151 6.73043C77.4417 5.76634 77.0509 4.80864 76.6428 3.85735C76.2733 2.99469 75.8979 2.13647 75.4943 1.28711C78.2903 1.83442 80.9512 2.91935 83.3267 4.4807Z" fill="url(#paint19_linear)"/>
<path fill-rule="evenodd" clip-rule="evenodd" d="M85.5775 31.2726L82.2258 31.4203C82.2258 31.3833 82.2258 31.3479 82.2258 31.3124C82.1633 29.9712 82.0769 28.6285 81.9756 27.2887C81.8416 25.5161 81.6777 23.7435 81.4826 21.9709C81.3187 20.5056 81.1281 19.0417 80.8957 17.5853C80.7199 16.4966 80.5248 15.4094 80.2715 14.3355C80.0183 13.2616 79.7054 12.1626 79.3688 11.0857C79.3152 10.9159 79.2601 10.746 79.205 10.5762L85.7756 11.7963C85.8799 12.1907 85.9797 12.5851 86.0736 12.978C86.3596 14.1893 86.583 15.4153 86.7796 16.6428C87.0284 18.1909 87.2266 19.7449 87.4054 21.3048C87.6218 23.2349 87.7991 25.169 87.9371 27.107C87.9749 27.6073 88.0096 28.1075 88.0414 28.6078C87.3097 29.5649 86.4865 30.4499 85.5835 31.2504L85.5775 31.2726Z" fill="url(#paint20_linear)"/>
</g>
<defs>
<linearGradient id="paint0_linear" x1="72.2173" y1="56.3865" x2="95.14" y2="92.5077" gradientUnits="userSpaceOnUse">
<stop stop-color="#010101"/>
<stop offset="0.629291" stop-color="#2C0E5C"/>
<stop offset="1" stop-color="#2C0E5E"/>
</linearGradient>
<linearGradient id="paint1_linear" x1="72.2203" y1="56.3865" x2="95.1485" y2="92.4958" gradientUnits="userSpaceOnUse">
<stop stop-color="#010101"/>
<stop offset="0.629291" stop-color="#2C0E5C"/>
<stop offset="1" stop-color="#2C0E5E"/>
</linearGradient>
<linearGradient id="paint2_linear" x1="67.2611" y1="56.3873" x2="87.006" y2="65.8415" gradientUnits="userSpaceOnUse">
<stop stop-color="#010101"/>
<stop offset="0.629291" stop-color="#2C0E5C"/>
<stop offset="1" stop-color="#2C0E5E"/>
</linearGradient>
<linearGradient id="paint3_linear" x1="37.33" y1="56.3912" x2="57.0749" y2="65.8454" gradientUnits="userSpaceOnUse">
<stop stop-color="#010101"/>
<stop offset="0.629291" stop-color="#2C0E5C"/>
<stop offset="1" stop-color="#2C0E5E"/>
</linearGradient>
<linearGradient id="paint4_linear" x1="40.5923" y1="56.3904" x2="62.3062" y2="94.7753" gradientUnits="userSpaceOnUse">
<stop stop-color="#010101"/>
<stop offset="0.629291" stop-color="#2C0E5C"/>
<stop offset="1" stop-color="#2C0E5E"/>
</linearGradient>
<linearGradient id="paint5_linear" x1="56.6356" y1="56.3912" x2="76.3803" y2="65.8452" gradientUnits="userSpaceOnUse">
<stop stop-color="#010101"/>
<stop offset="0.629291" stop-color="#2C0E5C"/>
<stop offset="1" stop-color="#2C0E5E"/>
</linearGradient>
<linearGradient id="paint6_linear" x1="7.29914" y1="56.3912" x2="27.0439" y2="65.8452" gradientUnits="userSpaceOnUse">
<stop stop-color="#010101"/>
<stop offset="0.629291" stop-color="#2C0E5C"/>
<stop offset="1" stop-color="#2C0E5E"/>
</linearGradient>
<linearGradient id="paint7_linear" x1="14.5336" y1="56.3905" x2="37.1606" y2="93.1232" gradientUnits="userSpaceOnUse">
<stop stop-color="#010101"/>
<stop offset="0.629291" stop-color="#2C0E5C"/>
<stop offset="1" stop-color="#2C0E5E"/>
</linearGradient>
<linearGradient id="paint8_linear" x1="33.7704" y1="-1.23943e-06" x2="106.213" y2="14.0473" gradientUnits="userSpaceOnUse">
<stop stop-color="#632DD7"/>
<stop offset="1" stop-color="#C71A65"/>
</linearGradient>
<linearGradient id="paint9_linear" x1="39.6448" y1="23.8262" x2="44.9735" y2="24.1467" gradientUnits="userSpaceOnUse">
<stop stop-color="#632DD7"/>
<stop offset="1" stop-color="#C71A65"/>
</linearGradient>
<linearGradient id="paint10_linear" x1="36.4112" y1="6.52539" x2="41.851" y2="6.69313" gradientUnits="userSpaceOnUse">
<stop stop-color="#632DD7"/>
<stop offset="1" stop-color="#C71A65"/>
</linearGradient>
<linearGradient id="paint11_linear" x1="26.4412" y1="20.8223" x2="35.4931" y2="21.3152" gradientUnits="userSpaceOnUse">
<stop stop-color="#632DD7"/>
<stop offset="1" stop-color="#C71A65"/>
</linearGradient>
<linearGradient id="paint12_linear" x1="23.4622" y1="2.70508" x2="28.589" y2="2.8825" gradientUnits="userSpaceOnUse">
<stop stop-color="#632DD7"/>
<stop offset="1" stop-color="#C71A65"/>
</linearGradient>
<linearGradient id="paint13_linear" x1="15.5636" y1="30.168" x2="22.5506" y2="30.8923" gradientUnits="userSpaceOnUse">
<stop stop-color="#632DD7"/>
<stop offset="1" stop-color="#C71A65"/>
</linearGradient>
<linearGradient id="paint14_linear" x1="12.0415" y1="6.73437" x2="18.8829" y2="6.95565" gradientUnits="userSpaceOnUse">
<stop stop-color="#632DD7"/>
<stop offset="1" stop-color="#C71A65"/>
</linearGradient>
<linearGradient id="paint15_linear" x1="55.2586" y1="5.57422" x2="60.5862" y2="5.89446" gradientUnits="userSpaceOnUse">
<stop stop-color="#632DD7"/>
<stop offset="1" stop-color="#C71A65"/>
</linearGradient>
<linearGradient id="paint16_linear" x1="58.4488" y1="14.248" x2="63.8886" y2="14.4158" gradientUnits="userSpaceOnUse">
<stop stop-color="#632DD7"/>
<stop offset="1" stop-color="#C71A65"/>
</linearGradient>
<linearGradient id="paint17_linear" x1="67.0002" y1="0.921874" x2="76.0509" y2="1.41467" gradientUnits="userSpaceOnUse">
<stop stop-color="#632DD7"/>
<stop offset="1" stop-color="#C71A65"/>
</linearGradient>
<linearGradient id="paint18_linear" x1="71.5303" y1="20.8535" x2="76.6565" y2="21.0309" gradientUnits="userSpaceOnUse">
<stop stop-color="#632DD7"/>
<stop offset="1" stop-color="#C71A65"/>
</linearGradient>
<linearGradient id="paint19_linear" x1="78.6676" y1="1.28711" x2="85.6558" y2="2.01171" gradientUnits="userSpaceOnUse">
<stop stop-color="#632DD7"/>
<stop offset="1" stop-color="#C71A65"/>
</linearGradient>
<linearGradient id="paint20_linear" x1="82.2814" y1="10.5762" x2="89.1217" y2="10.7973" gradientUnits="userSpaceOnUse">
<stop stop-color="#632DD7"/>
<stop offset="1" stop-color="#C71A65"/>
</linearGradient>
<clipPath id="clip0">
<rect width="97" height="84" fill="white"/>
</clipPath>
</defs>
</svg>
