<?xml version="1.0" encoding="utf-8"?><svg xmlns="http://www.w3.org/2000/svg" xmlns:xlink="http://www.w3.org/1999/xlink"><symbol viewBox="0 0 37 37" id="close" xmlns="http://www.w3.org/2000/svg"><path d="M8.15 10.445l2.127-2.073 18.428 17.972-2.126 2.074z"/><path d="M10.277 28.418l-2.126-2.074L26.579 8.372l2.126 2.073z"/></symbol><symbol viewBox="0 0 40 41" id="group" xmlns="http://www.w3.org/2000/svg"><g clip-path="url(#bclip0)"><path d="M29.723 27.762c-2.676-2.2-5.557-3.653-6.148-3.94a.191.191 0 0 1-.107-.173v-4.161c.526-.353.87-.944.87-1.617v-4.318c0-2.15-1.74-3.89-3.89-3.89h-.928c-2.15 0-3.89 1.74-3.89 3.89v4.318c0 .673.344 1.272.87 1.617v4.161c0 .074-.042.14-.108.173-.59.287-3.472 1.748-6.148 3.94a2.089 2.089 0 0 0-.763 1.617v2.955h21.005v-2.955a2.09 2.09 0 0 0-.763-1.617z"/><path d="M39.335 24.848c-2.24-1.847-4.662-3.07-5.155-3.308a.155.155 0 0 1-.09-.148v-3.489c.435-.295.73-.788.73-1.362v-3.62a3.262 3.262 0 0 0-3.258-3.259h-.772a3.261 3.261 0 0 0-3.259 3.259v3.62c0 .566.288 1.067.731 1.362v3.49a.164.164 0 0 1-.09.147 26.99 26.99 0 0 0-2.635 1.494c1.28.706 3.308 1.92 5.22 3.497a3.684 3.684 0 0 1 1.28 2.15H40v-2.479a1.833 1.833 0 0 0-.665-1.354zM11.82 21.54a.155.155 0 0 1-.09-.148v-3.489c.435-.295.73-.788.73-1.362v-3.62a3.262 3.262 0 0 0-3.258-3.259h-.788a3.261 3.261 0 0 0-3.259 3.259v3.62c0 .566.287 1.067.73 1.362v3.49a.163.163 0 0 1-.09.147c-.492.238-2.914 1.46-5.155 3.308-.402.336-.64.829-.64 1.354v2.48h7.962a3.646 3.646 0 0 1 1.28-2.151c1.913-1.576 3.94-2.791 5.221-3.497a27.747 27.747 0 0 0-2.643-1.494z"/></g><defs><clipPath id="bclip0"><path transform="translate(0 .998)" d="M0 0h40v40H0z"/></clipPath></defs></symbol><symbol viewBox="0 0 127 127" id="modules" xmlns="http://www.w3.org/2000/svg"><path d="M58.83 44.45l-12.2-6.1-12.2 6.1 12.2 6.1 12.2-6.1zm19.55 28.825l-12.7 6.35v12.2l12.7-6.35v-12.2zM68.296 44.45l12.2 6.1 12.201-6.1-12.2-6.1-12.2 6.1zm14.318 21.975l12.7-6.35v-12.2l-12.7 6.35v12.2zm-21.167-18.55l-12.7 6.35v12.2l12.7-6.35v-12.2zm16.933 6.35l-12.7-6.35v12.2l12.7 6.35v-12.2zM75.762 69.85l-12.199-6.1-12.2 6.1 12.2 6.1 12.199-6.1zM48.747 85.475l12.7 6.35v-12.2l-12.7-6.35v12.2zm-16.933-25.4l12.7 6.35v-12.2l-12.7-6.35v12.2z"/></symbol><symbol viewBox="0 0 35 39" id="play" xmlns="http://www.w3.org/2000/svg"><path d="M33.067 16.887c2.011 1.162 2.011 4.065 0 5.226L4.525 38.59C2.515 39.753 0 38.301 0 35.98V3.022C0 .699 2.514-.752 4.525.409l28.542 16.478z"/></symbol><symbol viewBox="0 0 30 31" id="rising-bar-graph" xmlns="http://www.w3.org/2000/svg"><g clip-path="url(#eclip0)"><path d="M2.209 15.969A1.879 1.879 0 0 1 .03 14.457a1.876 1.876 0 0 1 1.514-2.18c4.59-.827 9.521-3.167 14.669-6.926l-2.165-2.626L24.375.998l-3.667 9.808L18.6 8.248c-5.73 4.224-11.107 6.769-16.39 7.722zm3.417 5.654H3.75a1.875 1.875 0 0 0-1.875 1.875v5.625c0 1.036.84 1.875 1.875 1.875h1.875A1.874 1.874 0 0 0 7.5 29.123v-5.625a1.874 1.874 0 0 0-1.874-1.875zm15-7.5H18.75a1.874 1.874 0 0 0-1.875 1.875v13.125c0 1.036.839 1.875 1.875 1.875h1.875a1.874 1.874 0 0 0 1.875-1.875V15.998a1.874 1.874 0 0 0-1.875-1.875zm7.5-3.75H26.25a1.874 1.874 0 0 0-1.875 1.875v16.875c0 1.036.839 1.875 1.875 1.875h1.875A1.874 1.874 0 0 0 30 29.123V12.248a1.874 1.874 0 0 0-1.875-1.875zm-15 7.5H11.25a1.875 1.875 0 0 0-1.876 1.875v9.375c0 1.036.841 1.875 1.876 1.875h1.874A1.874 1.874 0 0 0 15 29.123v-9.375a1.874 1.874 0 0 0-1.875-1.875z"/></g><defs><clipPath id="eclip0"><path transform="translate(0 .998)" d="M0 0h30v30H0z"/></clipPath></defs></symbol><symbol viewBox="0 0 30 31" id="settings-work-tool" xmlns="http://www.w3.org/2000/svg"><g clip-path="url(#fclip0)"><path fill-rule="evenodd" clip-rule="evenodd" d="M29.906 14.332c-.048-.421-.54-.738-.964-.738-1.375 0-2.595-.807-3.107-2.055a3.341 3.341 0 0 1 .84-3.71.833.833 0 0 0 .09-1.13 14.841 14.841 0 0 0-2.376-2.4.835.835 0 0 0-1.14.091c-.894.99-2.5 1.359-3.74.84a3.332 3.332 0 0 1-2.027-3.256.832.832 0 0 0-.736-.876c-1.12-.13-2.25-.134-3.375-.009a.835.835 0 0 0-.742.858 3.337 3.337 0 0 1-2.054 3.2c-1.227.502-2.821.137-3.714-.845a.836.836 0 0 0-1.132-.095 14.899 14.899 0 0 0-2.426 2.4.834.834 0 0 0 .09 1.14 3.324 3.324 0 0 1 .838 3.742c-.518 1.233-1.798 2.028-3.264 2.028a.815.815 0 0 0-.866.736 15.027 15.027 0 0 0-.007 3.411c.047.424.554.738.984.738 1.306-.034 2.56.775 3.086 2.055a3.335 3.335 0 0 1-.838 3.71.834.834 0 0 0-.092 1.13 14.897 14.897 0 0 0 2.373 2.4.834.834 0 0 0 1.142-.09c.897-.992 2.503-1.36 3.74-.841a3.327 3.327 0 0 1 2.029 3.256.833.833 0 0 0 .736.876 14.923 14.923 0 0 0 3.375.009.835.835 0 0 0 .742-.86 3.334 3.334 0 0 1 2.053-3.198c1.234-.504 2.822-.135 3.714.845a.838.838 0 0 0 1.132.095 14.934 14.934 0 0 0 2.427-2.4.833.833 0 0 0-.09-1.14 3.324 3.324 0 0 1-.84-3.741 3.358 3.358 0 0 1 3.069-2.034l.185.005a.835.835 0 0 0 .878-.735 15.03 15.03 0 0 0 .007-3.412zm-14.882 6.701a5.009 5.009 0 0 1-5.003-5.003 5.009 5.009 0 0 1 5.003-5.004 5.009 5.009 0 0 1 5.003 5.004 5.009 5.009 0 0 1-5.003 5.003z"/></g><defs><clipPath id="fclip0"><path transform="translate(0 .998)" d="M0 0h30v30H0z"/></clipPath></defs></symbol></svg>